<svg xmlns="http://www.w3.org/2000/svg" viewBox="0 0 256 256" width="100%" height="100%">
  <!-- Tilted/Curved Sitting Fox Silhouette matching user line art -->
  <path d="M 125,50 
           C 120,40 115,35 110,38 
           C 100,44 95,60 112,64
           C 125,67 132,60 138,68
           C 146,80 148,94 142,108
           C 134,124 120,138 108,150
           C 96,162 86,176 88,194
           C 90,212 104,228 124,232
           C 148,236 172,228 190,212
           C 208,196 218,172 214,150
           C 210,128 192,112 170,108
           C 148,104 126,112 110,126
           C 94,140 86,160 88,182
           C 90,204 104,220 124,224" 
        fill="none" 
        stroke="#ff6b00" 
        stroke-width="8" 
        stroke-linecap="round" 
        stroke-linejoin="round"/>
  <!-- Fox Ears outline -->
  <path d="M 125,50 
           C 128,42 128,32 122,25
           C 118,20 114,24 116,35
           C 117,42 121,48 125,50 Z" 
        fill="none" 
        stroke="#ff6b00" 
        stroke-width="8" 
        stroke-linecap="round" 
        stroke-linejoin="round"/>
  <!-- Second Ear outline backing -->
  <path d="M 128,28 
           C 134,22 140,24 142,34
           C 144,44 138,54 135,58" 
        fill="none" 
        stroke="#ff6b00" 
        stroke-width="8" 
        stroke-linecap="round" 
        stroke-linejoin="round"/>
</svg>
